<!-- <svg width="360" height="640" viewBox="0 0 360 640" fill="none" xmlns="http://www.w3.org/2000/svg">
    <path fill-rule="evenodd" clip-rule="evenodd" d="M-36.3142 13.9743C2.93346 -25.2733 66.5665 -25.2733 105.814 13.9743L340.314 248.474C379.562 287.722 379.562 351.355 340.314 390.603L105.814 625.103C66.5665 664.35 2.93346 664.35 -36.3142 625.103C-75.5619 585.855 -75.5619 522.222 -36.3142 482.974L32.3692 414.291C84.6995 361.961 84.6994 277.116 32.3692 224.786L-36.3142 156.103C-75.5619 116.855 -75.5619 53.222 -36.3142 13.9743Z" fill="#373737"/>
</svg> -->

<!-- <svg width="360" height="640" viewBox="0 0 360 640" fill="none" xmlns="http://www.w3.org/2000/svg" xmlns:xlink="http://www.w3.org/1999/xlink" preserveAspectRatio="none">
    <path d="M267.361 105.146C247.376 85.161 214.974 85.161 194.989 105.146C175.004 125.131 175.004 157.533 194.989 177.518L229.963 212.492C256.609 239.139 256.609 282.342 229.963 308.989L194.989 343.963C175.004 363.948 175.004 396.35 194.989 416.335C214.974 436.32 247.376 436.32 267.361 416.335L386.769 296.927C406.754 276.942 406.754 244.539 386.769 224.554L267.361 105.146Z" fill="#373737"/>
</svg> -->

<svg width="360" height="640" viewBox="0 0 360 640" fill="none" xmlns="http://www.w3.org/2000/svg" xmlns:xlink="http://www.w3.org/1999/xlink">
<path d="M261.941 104.059C243.196 85.3137 212.804 85.3137 194.059 104.059C175.314 122.804 175.314 153.196 194.059 171.941L226.863 204.745C251.856 229.739 251.856 270.261 226.863 295.255L194.059 328.059C175.314 346.804 175.314 377.196 194.059 395.941C212.804 414.686 243.196 414.686 261.941 395.941L373.941 283.941C392.686 265.196 392.686 234.804 373.941 216.059L261.941 104.059Z" fill="#D9D9D9"/>
<path d="M261.941 104.059C243.196 85.3137 212.804 85.3137 194.059 104.059C175.314 122.804 175.314 153.196 194.059 171.941L226.863 204.745C251.856 229.739 251.856 270.261 226.863 295.255L194.059 328.059C175.314 346.804 175.314 377.196 194.059 395.941C212.804 414.686 243.196 414.686 261.941 395.941L373.941 283.941C392.686 265.196 392.686 234.804 373.941 216.059L261.941 104.059Z" fill="url(#pattern0)"/>
</svg>

