<svg width="600" height="600" viewBox="0 0 600 600" fill="none" xmlns="http://www.w3.org/2000/svg" xmlns:xlink="http://www.w3.org/1999/xlink">
<path d="M391.209 58.285C360.163 27.2383 309.826 27.2383 278.779 58.285C247.733 89.3317 247.733 139.668 278.779 170.715L333.111 225.047C374.507 266.442 374.507 333.558 333.111 374.953L278.779 429.285C247.733 460.332 247.733 510.668 278.779 541.715C309.826 572.762 360.163 572.762 391.209 541.715L576.709 356.215C607.756 325.168 607.756 274.832 576.709 243.785L391.209 58.285Z" fill="#D9D9D9"/>
<path d="M391.209 58.285C360.163 27.2383 309.826 27.2383 278.779 58.285C247.733 89.3317 247.733 139.668 278.779 170.715L333.111 225.047C374.507 266.442 374.507 333.558 333.111 374.953L278.779 429.285C247.733 460.332 247.733 510.668 278.779 541.715C309.826 572.762 360.163 572.762 391.209 541.715L576.709 356.215C607.756 325.168 607.756 274.832 576.709 243.785L391.209 58.285Z" fill="url(#pattern0)"/>
<path d="M135.723 58.285C104.676 27.2383 54.3395 27.2383 23.2928 58.285C-7.75386 89.3317 -7.75386 139.668 23.2928 170.715L77.6245 225.047C119.02 266.442 119.02 333.558 77.6245 374.953L23.2928 429.285C-7.75386 460.332 -7.75386 510.668 23.2928 541.715C54.3395 572.762 104.676 572.762 135.723 541.715L321.223 356.215C352.269 325.168 352.269 274.832 321.223 243.785L135.723 58.285Z" fill="#D9D9D9"/>
<path d="M135.723 58.285C104.676 27.2383 54.3395 27.2383 23.2928 58.285C-7.75386 89.3317 -7.75386 139.668 23.2928 170.715L77.6245 225.047C119.02 266.442 119.02 333.558 77.6245 374.953L23.2928 429.285C-7.75386 460.332 -7.75386 510.668 23.2928 541.715C54.3395 572.762 104.676 572.762 135.723 541.715L321.223 356.215C352.269 325.168 352.269 274.832 321.223 243.785L135.723 58.285Z" fill="url(#pattern1)"/>
</svg>
