<?xml version="1.0" encoding="UTF-8"?><!DOCTYPE svg PUBLIC "-//W3C//DTD SVG 1.1//EN" "http://www.w3.org/Graphics/SVG/1.1/DTD/svg11.dtd"><svg xmlns="http://www.w3.org/2000/svg" xmlns:xlink="http://www.w3.org/1999/xlink"><symbol id="accordion-arrow" viewBox="0 0 12 7"><g fill="none"><path d="M-2 6h1.999l4.586-4.586a2 2 0 0 1 2.828 0L12 6h2v3H-2V6Z" fill="#fff"/><path d="M11.999 6.5h1.5v2H-1.5v-2H.206l.147-.146 4.585-4.586a1.5 1.5 0 0 1 2.122 0l4.586 4.586.146.146h.207Z" stroke="#15171C" stroke-opacity=".1"/></g></symbol><symbol id="accordion" viewBox="0 0 30 30"><g fill="none"><path display="var(--is-visible--md-up)" d="m10.5 14 3.793 3.793a1 1 0 0 0 1.414 0L19.5 14" stroke="#fff" stroke-width="2" stroke-linecap="round" stroke-linejoin="round"/><path display="var(--is-visible--sm-down)" d="m12 14.333 2.529 2.529c.26.26.682.26.942 0L18 14.333" stroke="#fff" stroke-width="1.5" stroke-linecap="round" stroke-linejoin="round"/></g></symbol><symbol id="advisory" viewBox="0 0 24 24"><g fill="none"><path d="M4 17.584V19a4 4 0 0 0 4 4h4M4 8.406V8a7 7 0 0 1 7-7h2a7 7 0 0 1 7 7v.422" stroke="currentColor" stroke-width="2" stroke-miterlimit="10" stroke-linecap="round" stroke-linejoin="round"/><path d="M7 8.101a5 5 0 1 0 0 9.798V8.101ZM17 17.899a5 5 0 1 0 0-9.798v9.798Z" stroke="currentColor" stroke-width="2" stroke-miterlimit="10" stroke-linecap="round" stroke-linejoin="round"/></g></symbol><symbol id="app-design" viewBox="0 0 24 24"><g fill="none"><path d="M6 1h12a2 2 0 0 1 2 2v18a2 2 0 0 1-2 2H6a2 2 0 0 1-2-2V3a2 2 0 0 1 2-2Z" stroke="currentColor" stroke-width="2" stroke-miterlimit="10" stroke-linecap="round" stroke-linejoin="round"/><path d="M12 20a1 1 0 1 0 0-2 1 1 0 0 0 0 2Z" fill="currentColor"/></g></symbol><symbol id="architecture" viewBox="0 0 24 24"><g fill="none"><path d="M10.002 2h-8v4h8V2ZM10.002 18h-8v4h8v-4ZM6.002 9v6M13.002 4h4v2M13.002 20h4v-2M12.002 12l5-3 5 3-5 3-5-3Z" stroke="currentColor" stroke-width="2" stroke-miterlimit="10" stroke-linecap="round" stroke-linejoin="round"/></g></symbol><symbol id="arrow-next" viewBox="0 0 8 14"><g fill="none"><path d="m1 1 4.586 4.586a2 2 0 0 1 0 2.828L1 13" stroke="currentColor" stroke-width="2" stroke-linecap="round" stroke-linejoin="round"/></g></symbol><symbol id="arrow-prev" viewBox="0 0 20 20"><g fill="none"><path display="var(--is-visible--md-up)" d="M12 1 4.414 8.586a2 2 0 0 0 0 2.828L12 19" fill="none" stroke="currentColor" stroke-width="2" stroke-linecap="round" stroke-linejoin="round"/><path display="var(--is-visible--sm-down)" d="M11 3.667 5.943 8.724c-.52.52-.52 1.365 0 1.886L11 15.667" fill="none" stroke="currentColor" stroke-width="1.5" stroke-linecap="round" stroke-linejoin="round"/></g></symbol><symbol id="b2b" viewBox="0 0 24 24"><g fill="none"><path d="M7.7 5V1H1v22h6.7v-4M8.2 12h7M11.2 8l4 4-4 4M16 19v4h6.7V1H16v4" stroke="currentColor" stroke-width="2" stroke-miterlimit="10" stroke-linecap="round" stroke-linejoin="round"/></g></symbol><symbol id="business-objectives-arrow" viewBox="0 0 128 37"><g fill="none"><path d="m127.279 36.316-23.639-23.64A40.002 40.002 0 0 0 75.355.961H0" stroke="currentColor"/></g></symbol><symbol id="change" viewBox="0 0 24 24"><g fill="none"><path d="M3.2 7.7h18M17.2 3.7l4 4-4 4M3.2 16.6h18M7.2 20.6l-4-4 4-4" stroke="currentColor" stroke-width="2" stroke-miterlimit="10" stroke-linecap="round" stroke-linejoin="round"/></g></symbol><symbol id="checkarrow" viewBox="0 0 11 16"><g fill="none"><path display="var(--is-visible--md-up)" clip-rule="evenodd" d="M1.608 1.615a2.06 2.06 0 0 1 2.938 0l4.846 4.9c.81.82.81 2.15 0 2.97l-4.846 4.9a2.06 2.06 0 0 1-2.938 0 2.116 2.116 0 0 1 0-2.97l1.42-1.435a2.822 2.822 0 0 0 0-3.96l-1.42-1.435a2.117 2.117 0 0 1 0-2.97Z" fill="none" stroke="currentColor" stroke-width="2" stroke-miterlimit="1.414" stroke-linecap="round" stroke-linejoin="round"/><path display="var(--is-visible--sm-down)" clip-rule="evenodd" d="M1.456 3.461a1.546 1.546 0 0 1 2.203 0l3.635 3.675a1.587 1.587 0 0 1 0 2.228l-3.635 3.675a1.546 1.546 0 0 1-2.203 0 1.587 1.587 0 0 1 0-2.228l1.065-1.076c.81-.82.81-2.15 0-2.97L1.456 5.69a1.587 1.587 0 0 1 0-2.228Z" fill="none" stroke="currentColor" stroke-width="1.5" stroke-miterlimit="1.414" stroke-linecap="round" stroke-linejoin="round"/></g></symbol><symbol id="checkmark" viewBox="0 0 22 22"><g fill="none"><path display="var(--is-visible--md-up)" d="M20.681 8.495a10 10 0 1 1-6.25-6.888" stroke="currentColor" stroke-width="2" stroke-linecap="round" stroke-linejoin="round"/><path display="var(--is-visible--md-up)" d="m8.5 11 2.5 2.5L21 1" fill="none" stroke="currentColor" stroke-width="2" stroke-linecap="round" stroke-linejoin="round"/><path display="var(--is-visible--sm-down)" d="M15.76 6.621a7.5 7.5 0 1 1-4.687-5.166" fill="none" stroke="currentColor" stroke-width="1.5" stroke-linecap="round" stroke-linejoin="round"/><path display="var(--is-visible--sm-down)" d="M6.625 8.5 8.5 10.375 16 1" fill="none" stroke="currentColor" stroke-width="1.5" stroke-linecap="round" stroke-linejoin="round"/></g></symbol><symbol id="close-large" viewBox="0 0 30 30"><g fill="none"><path d="M6 24 24 6M24 24 6 6" fill="none" stroke="currentColor" stroke-width="1.5" stroke-linecap="round"/></g></symbol><symbol id="close" viewBox="0 0 20 20"><g fill="none"><path display="var(--is-visible--md-up)" d="m3.25 16.75 13.5-13.5M16.75 16.75 3.25 3.25" fill="none" stroke="currentColor" stroke-width="2" stroke-linecap="round"/><path display="var(--is-visible--sm-down)" d="m5.5 14.5 9-9M14.5 14.5l-9-9" fill="none" stroke="currentColor" stroke-width="1.125" stroke-linecap="round"/></g></symbol><symbol id="design-systems" viewBox="0 0 24 24"><g fill="none"><path d="m10 11.01 8.378-8.389a2.122 2.122 0 0 1 3 3L13 14" stroke="currentColor" stroke-width="2" stroke-miterlimit="10" stroke-linecap="round" stroke-linejoin="round"/><path d="M7.514 11.941a3.212 3.212 0 0 1 4.57-.026 3.214 3.214 0 0 1-.025 4.571C10.8 17.74 6 18 6 18s.26-4.8 1.514-6.059Z" stroke="currentColor" stroke-width="2" stroke-miterlimit="10" stroke-linecap="round" stroke-linejoin="round"/><path d="M12 2H2v20h20V12" stroke="currentColor" stroke-width="2" stroke-miterlimit="10" stroke-linecap="round" stroke-linejoin="round"/></g></symbol><symbol id="error" viewBox="0 0 22 22"><g fill="none"><path display="var(--is-visible--md-up)" d="M20.681 8.495a10 10 0 1 1-19.36 5.01 10 10 0 0 1 19.36-5.01h0ZM11 6v5m0 3v1" fill="none" stroke="currentColor" stroke-width="2" stroke-linecap="round" stroke-linejoin="round"/><path display="var(--is-visible--sm-down)" d="M20.76 9.621a7.5 7.5 0 1 1-14.52 3.758 7.5 7.5 0 0 1 14.52-3.758h0ZM13.5 7.75v3.75m0 2.25v.75" fill="none" stroke="currentColor" stroke-width="1.5" stroke-linecap="round" stroke-linejoin="round"/></g></symbol><symbol id="example-arrow" viewBox="0 0 20 20"><g fill="none"><path d="m8 4 6 6-6 6" stroke="currentColor" stroke-width="2" stroke-linecap="round" stroke-linejoin="round" fill="none"/></g></symbol><symbol id="example-close" viewBox="0 0 40 40"><g fill="none"><path display="var(--is-visible--sm-down)" d="M26 14 14 26m0-12 12 12" fill="none" stroke="currentColor" stroke-width="1.2"/><path display="var(--is-visible--md-up)" d="M25 15 15 25m0-10 10 10" fill="none" stroke="currentColor" stroke-width="1.2"/></g></symbol><symbol id="example-password-hide" viewBox="0 0 16 16"><g fill="none"><path stroke="currentColor" fill="none" stroke-linecap="square" stroke-miterlimit="10" stroke-width="1.5" d="M13.558 6.68c.714.728 1.108 1.32 1.108 1.32S12 12 8 12c-.344 0-.677-.03-1-.083m-2.855-1.174A11.116 11.116 0 0 1 1.333 8S4 4 8 4c1.196 0 2.272.358 3.194.859"/><path stroke="currentColor" fill="none" stroke-linecap="square" stroke-miterlimit="10" stroke-width="1.5" d="M10.398 5.5A2.667 2.667 0 1 0 6.5 8.872"/><path stroke="currentColor" fill="none" stroke-width="1.5" d="M2 13 14 3"/></g></symbol><symbol id="example-password" viewBox="0 0 16 16"><g fill="none"><path stroke="currentColor" fill="none" stroke-linecap="square" stroke-miterlimit="10" stroke-width="1.5" d="M1.333 8S4 4 8 4s6.666 4 6.666 4S12 12 8 12 1.333 8 1.333 8Z"/><path stroke="currentColor" fill="none" stroke-linecap="square" stroke-miterlimit="10" stroke-width="1.5" d="M8 9.333A2.667 2.667 0 1 0 8 4a2.667 2.667 0 0 0 0 5.333Z"/></g></symbol><symbol id="example-zoom-in" viewBox="0 0 24 24"><g fill="none"><rect x="9" y="1" width="6" height="22" rx="2" fill="currentColor"/><rect x="1" y="15" width="6" height="22" rx="2" transform="rotate(-90 1 15)" fill="currentColor"/></g></symbol><symbol id="example-zoom-out" viewBox="0 0 24 24"><g fill="none"><rect x="1" y="15" width="6" height="22" rx="2" transform="rotate(-90 1 15)" fill="currentColor"/></g></symbol><symbol id="external" viewBox="0 0 10 10"><g fill="none"><path d="M8.53 6.412V1.471m0 0H3.587m4.941 0L1.471 8.529" fill="none" stroke="currentColor" stroke-width="1.5" stroke-linecap="round" stroke-linejoin="round"/></g></symbol><symbol id="facebook" viewBox="0 0 12 12"><g fill="none"><path fill-rule="evenodd" clip-rule="evenodd" d="M11.338 0H.662A.662.662 0 0 0 0 .662v10.676c0 .366.296.662.662.662h5.752V7.36H4.852V5.542h1.562V4.206c0-1.55.947-2.394 2.33-2.394.465 0 .93.023 1.394.07v1.62h-.952c-.753 0-.9.357-.9.882v1.157h1.8l-.234 1.816H8.276V12h3.062a.662.662 0 0 0 .662-.662V.662A.662.662 0 0 0 11.338 0Z" fill="currentColor"/></g></symbol><symbol id="interaction" viewBox="0 0 24 24"><g fill="none"><path d="M12 5V1H1v22h11v-4" stroke="currentColor" stroke-width="2" stroke-miterlimit="10" stroke-linecap="round" stroke-linejoin="round"/><path d="M12 15a3 3 0 1 0 0-6 3 3 0 0 0 0 6ZM15 12h7M18 8l4 4-4 4" stroke="currentColor" stroke-width="2" stroke-miterlimit="10" stroke-linecap="round" stroke-linejoin="round"/></g></symbol><symbol id="international" viewBox="0 0 24 24"><g fill="none"><path d="M12.002 1v22M1.002 12h22M12.002 23c3.037 0 5.5-4.925 5.5-11s-2.462-11-5.5-11-5.5 4.925-5.5 11 2.462 11 5.5 11Z" stroke="currentColor" stroke-width="2" stroke-miterlimit="10" stroke-linecap="round" stroke-linejoin="round"/><path d="M12.002 23c6.075 0 11-4.925 11-11s-4.925-11-11-11-11 4.925-11 11 4.925 11 11 11Z" stroke="currentColor" stroke-width="2" stroke-miterlimit="10" stroke-linecap="round" stroke-linejoin="round"/></g></symbol><symbol id="interviews" viewBox="0 0 24 24"><g fill="none"><path d="M23 6v11a2 2 0 0 1-2 2h-2v4l-6-4h-1m5-16H3a2 2 0 0 0-2 2v8a2 2 0 0 0 2 2h2v5l7-5h5a2 2 0 0 0 2-2V5a2 2 0 0 0-2-2Z" stroke="currentColor" stroke-width="2" stroke-linecap="round" stroke-linejoin="round"/></g></symbol><symbol id="linkedin" viewBox="0 0 12 12"><g fill="none"><path fill-rule="evenodd" clip-rule="evenodd" d="M10.226 10.225H8.447V7.44c0-.664-.012-1.518-.925-1.518-.926 0-1.067.724-1.067 1.47v2.833H4.677V4.5h1.705v.782h.025c.238-.45.818-.924 1.684-.924 1.803 0 2.135 1.185 2.135 2.728v3.14ZM2.67 3.717a1.032 1.032 0 1 1-.001-2.065 1.032 1.032 0 0 1 .001 2.065Zm-.892 6.508H3.56V4.5H1.777v5.726ZM11.112 0H.885A.876.876 0 0 0 0 .865v10.269c0 .478.397.866.885.866h10.227c.49 0 .888-.388.888-.866V.865A.878.878 0 0 0 11.112 0Z" fill="currentColor"/></g></symbol><symbol id="menu" viewBox="0 0 30 30"><g fill="none"><path d="M25 10H5M25 15H5M25 20H5" fill="none" stroke="currentColor" stroke-width="1.5" stroke-linecap="round"/></g></symbol><symbol id="play" viewBox="0 0 17 17"><g fill="none"><path display="var(--is-visible--md-up)" d="M4.533 12.579V4.42c0-1.782 2.061-2.772 3.453-1.659l5.098 4.079a2.125 2.125 0 0 1 0 3.318l-5.098 4.079c-1.392 1.113-3.453.123-3.453-1.66Z" fill="none" stroke="currentColor" stroke-width="2"/><path display="var(--is-visible--sm-down)" d="M4.533 14.052V2.948c0-1.188 1.374-1.849 2.302-1.107l6.94 5.553a1.417 1.417 0 0 1 0 2.212l-6.94 5.553c-.928.742-2.302.081-2.302-1.107Z" fill="none" stroke="currentColor" stroke-width="2.25"/></g></symbol><symbol id="process-tab-triangle-xs" viewBox="0 0 360 18"><g fill="none"><path d="m360 1.5-149.679-.476a19.998 19.998 0 0 0-14.205 5.858l-7.545 7.545c-3.905 3.905-10.237 3.905-14.142 0l-7.071-7.071a20 20 0 0 0-14.142-5.858H0" stroke="currentColor"/></g></symbol><symbol id="process-tab-triangle" viewBox="0 0 21 180"><g fill="none"><path d="M0 0v60.716a20 20 0 0 0 5.858 14.142l7.57 7.57c3.906 3.906 3.906 10.238 0 14.143l-7.129 7.13a20 20 0 0 0-5.857 14L0 180" stroke="currentColor"/></g></symbol><symbol id="prototyping" viewBox="0 0 24 24"><g fill="none"><path d="M1 9h22M8 9v13M23 2H1v20h22V2Z" stroke="currentColor" stroke-width="2" stroke-miterlimit="10" stroke-linecap="round" stroke-linejoin="round"/></g></symbol><symbol id="redesign" viewBox="0 0 24 24"><g fill="none"><path d="M8.83 15.172 22.002 2M6.002 22a4 4 0 1 0 0-8 4 4 0 0 0 0 8ZM15.002 2h7v7M2.002 2l6 6M2.002 8l6-6M16.002 16l6 6M16.002 22l6-6" stroke="currentColor" stroke-width="2" stroke-miterlimit="10" stroke-linecap="round" stroke-linejoin="round"/></g></symbol><symbol id="responsive" viewBox="0 0 24 24"><g fill="none"><path d="M10 1H3v12h7V1ZM10 17H3v6h7v-6ZM21 1h-7v6h7V1ZM21 11h-7v12h7V11Z" stroke="currentColor" stroke-width="2" stroke-miterlimit="10" stroke-linecap="round" stroke-linejoin="round"/></g></symbol><symbol id="stakeholder" viewBox="0 0 24 24"><g fill="none"><path d="M3.002 13V5a2 2 0 0 1 2-2h14a2 2 0 0 1 2 2v8M23.002 17a4 4 0 0 1-4 4h-14a4 4 0 0 1-4-4h22Z" stroke="currentColor" stroke-width="2" stroke-miterlimit="10" stroke-linecap="round" stroke-linejoin="round"/><path d="M10.002 7v6l5-3-5-3Z" fill="currentColor"/></g></symbol><symbol id="star" viewBox="0 0 78 75"><g fill="none"><path d="m39 0 9.158 28.395 29.835-.065-24.175 17.485 9.281 28.355L39 56.58 14.9 74.17l9.283-28.355L.007 28.33l29.835.066L39 0Z" fill="currentColor"/></g></symbol><symbol id="success" viewBox="0 0 22 22"><g fill="none"><path display="var(--is-visible--md-up)" d="M4 11.5 9 17l9-12" fill="none" stroke="#0FC599" stroke-width="2" stroke-linecap="round" stroke-linejoin="round"/><path display="var(--is-visible--sm-down)" d="M8.25 10.875 12 15l6.75-9" fill="none" stroke="#0FC599" stroke-width="1.5" stroke-linecap="round" stroke-linejoin="round"/></g></symbol><symbol id="training" viewBox="0 0 24 24"><g fill="none"><path d="m17 22-5 1-5-1v-8l5 1 5-1v8ZM12 8a3.5 3.5 0 1 1 0-7 3.5 3.5 0 0 1 0 7Z" stroke="currentColor" stroke-width="2" stroke-miterlimit="10" stroke-linecap="round" stroke-linejoin="round"/><path d="m10 18-7.065 1.57a1 1 0 0 1-1.13-1.383l2.93-6.593A1 1 0 0 1 5.65 11h12.7a1 1 0 0 1 .914.594l2.93 6.593a1 1 0 0 1-1.13 1.383L14 18" stroke="currentColor" stroke-width="2" stroke-miterlimit="10" stroke-linecap="round" stroke-linejoin="round"/></g></symbol><symbol id="twitter" viewBox="0 0 14 12"><g fill="none"><path fill-rule="evenodd" clip-rule="evenodd" d="M4.398 11.5c5.283 0 8.173-4.233 8.173-7.898 0-.12 0-.238-.005-.357A5.747 5.747 0 0 0 14 1.805a5.981 5.981 0 0 1-1.653.438A2.812 2.812 0 0 0 13.613.706c-.554.32-1.17.546-1.826.671A2.915 2.915 0 0 0 9.692.5C8.106.5 6.818 1.745 6.818 3.277c0 .217.028.428.073.633A8.255 8.255 0 0 1 .969 1.01a2.705 2.705 0 0 0-.386 1.397c0 .963.51 1.813 1.277 2.311a2.983 2.983 0 0 1-1.3-.346v.037c0 1.343.992 2.469 2.303 2.723-.241.065-.493.098-.757.098a2.92 2.92 0 0 1-.537-.049c.364 1.104 1.428 1.906 2.683 1.927a5.89 5.89 0 0 1-3.569 1.191c-.23 0-.459-.01-.683-.038a8.38 8.38 0 0 0 4.398 1.24Z" fill="currentColor"/></g></symbol><symbol id="user-flows" viewBox="0 0 24 24"><g fill="none"><path d="M16 11h2.5a4.5 4.5 0 0 0 0-9H12m4 9a4 4 0 0 1-8 0m8 0a4 4 0 0 0-8 0m4 12 3-3H5.5a4.5 4.5 0 0 1 0-9H8m0-9h1" stroke="currentColor" stroke-width="2" stroke-linecap="round" stroke-linejoin="round"/></g></symbol><symbol id="user-journeys" viewBox="0 0 24 24"><g fill="none"><path d="M11.002 4h8a4 4 0 0 1 0 8h-14a4 4 0 0 0 0 8h8M17.002 20a3 3 0 1 0 6 0 3 3 0 0 0-6 0ZM1.002 4a3 3 0 1 0 6 0 3 3 0 0 0-6 0Z" stroke="currentColor" stroke-width="2" stroke-miterlimit="10" stroke-linecap="round" stroke-linejoin="round"/></g></symbol><symbol id="user-objectives-arrow" viewBox="0 0 130 37"><g fill="none"><path d="m1 36.316 23.64-23.64A40 40 0 0 1 52.924.961h76.355" stroke="currentColor"/></g></symbol><symbol id="user-testing" viewBox="0 0 24 24"><g fill="none"><path d="M10 23H4a2 2 0 0 1-2-2V3a2 2 0 0 1 2-2h12a2 2 0 0 1 2 2v7m4 13-2.879-2.879M20 18a3 3 0 1 1-6 0 3 3 0 0 1 6 0Z" stroke="currentColor" stroke-width="2" stroke-linecap="round" stroke-linejoin="round"/></g></symbol><symbol id="ux-analysis" viewBox="0 0 24 24"><g fill="none"><path d="m6 13 3-6 7 5 6-9M6 13H2m4 0 10 5 6-4M2 21l2.246-4.492" stroke="currentColor" stroke-width="2" stroke-linecap="round" stroke-linejoin="round"/></g></symbol><symbol id="ux-audit" viewBox="0 0 24 24"><g fill="none"><path d="M16.6 18.5C15.2 20.6 12.7 22 10 22c-4.4 0-8-3.6-8-8s3.6-8 8-8m9.9 14.8c1.3-1.9 2.1-4.3 2.1-6.8 0-6.6-5.4-12-12-12v12l9.9 6.8Z" stroke="currentColor" stroke-width="2" stroke-linecap="round" stroke-linejoin="round"/></g></symbol><symbol id="ux-design" viewBox="0 0 30 32"><g fill="none"><path clip-rule="evenodd" d="M3.318 2.318a4.5 4.5 0 0 1 6.364 0l10.5 10.5a4.5 4.5 0 0 1 0 6.364l-10.5 10.5a4.5 4.5 0 0 1-6.364-6.364l3.075-3.075a6 6 0 0 0 0-8.486L3.318 8.682a4.5 4.5 0 0 1 0-6.364Z" stroke="currentColor" stroke-width="2" stroke-miterlimit="1.414" stroke-linecap="round" stroke-linejoin="round"/><path clip-rule="evenodd" d="M9.818 2.318a4.5 4.5 0 0 1 6.364 0l10.5 10.5a4.5 4.5 0 0 1 0 6.364l-10.5 10.5a4.5 4.5 0 0 1-6.364-6.364l3.075-3.075a6 6 0 0 0 0-8.486L9.818 8.682a4.5 4.5 0 0 1 0-6.364Z" stroke="#0FC599" stroke-width="2" stroke-miterlimit="1.414" stroke-linecap="round" stroke-linejoin="round"/></g></symbol><symbol id="ux-research" viewBox="0 0 32 33"><g fill="none"><circle cx="11.85" cy="11.85" r="11.85" transform="matrix(-1 0 0 1 24.693 1)" stroke="currentColor" stroke-width="2"/><path d="M29.698 29.767c1.757-1.757 1.724-4.64-.074-6.437l-4.974-4.974c-1.798-1.798-4.68-1.831-6.438-.074-1.757 1.757-1.724 4.64.074 6.438l4.974 4.974c1.798 1.798 4.68 1.83 6.438.073Z" stroke="#CF1839" stroke-width="2"/></g></symbol><symbol id="ux-strategy" viewBox="0 0 33 32"><g fill="none"><path clip-rule="evenodd" d="M1.813 13.444a9.001 9.001 0 0 0 1.951 2.92l2.94 2.94a3 3 0 0 0 4.242-4.243l-2.94-2.94A3 3 0 0 1 12.25 7.88l2.94 2.94a3 3 0 0 0 4.243-4.243l-2.94-2.94a9 9 0 0 0-14.679 9.808Z" stroke="currentColor" stroke-width="2" stroke-linecap="round"/><path clip-rule="evenodd" d="M30.34 18.453a9 9 0 0 0-1.95-2.92l-2.94-2.94a3 3 0 0 0-4.243 4.243l2.94 2.94a3 3 0 1 1-4.243 4.242l-2.94-2.94a3 3 0 1 0-4.242 4.243l2.94 2.94a9 9 0 0 0 14.678-9.808Z" stroke="#2152FF" stroke-width="2" stroke-linecap="round"/></g></symbol><symbol id="ux-support" viewBox="0 0 32 32"><g fill="none"><path d="M12.32 27.523A3.477 3.477 0 0 0 15.795 31h5.736a9.212 9.212 0 0 0 9.212-9.212 9.212 9.212 0 0 0-9.212-9.213h-5.794a3.418 3.418 0 0 0 0 6.837h5.738a2.318 2.318 0 0 1-.002 4.635h-5.678a3.477 3.477 0 0 0-3.477 3.476Z" stroke="#F86800" stroke-width="2" stroke-miterlimit="1.414" stroke-linecap="round" stroke-linejoin="round"/><path d="M19.425 4.477A3.476 3.476 0 0 0 15.948 1h-5.735a9.213 9.213 0 0 0 0 18.425h5.794a3.418 3.418 0 0 0 0-6.837h-5.739a2.318 2.318 0 0 1 .002-4.635h5.678a3.476 3.476 0 0 0 3.477-3.476Z" stroke="currentColor" stroke-width="2" stroke-miterlimit="1.414" stroke-linecap="round" stroke-linejoin="round"/></g></symbol><symbol id="video-pause" viewBox="0 0 30 30"><g fill="none"><path display="var(--is-visible--md-up)" d="M11 5v20M19 5v20" fill="none" stroke="currentColor" stroke-width="2" stroke-linecap="round"/><path display="var(--is-visible--sm-down)" d="M12.334 8.333v13.334M17.666 8.333v13.334" fill="none" stroke="currentColor" stroke-width="1.5" stroke-linecap="round"/></g></symbol><symbol id="video-play" viewBox="0 0 30 30"><g fill="none"><path display="var(--is-visible--md-up)" d="M8 22.198V7.802c0-3.144 3.637-4.892 6.093-2.928l8.997 7.198a3.75 3.75 0 0 1 0 5.856l-8.997 7.198C11.637 27.09 8 25.342 8 22.198Z" fill="none" stroke="currentColor" stroke-width="1.875"/><path display="var(--is-visible--sm-down)" d="M10.334 19.798v-9.596c0-2.097 2.425-3.262 4.062-1.953l5.998 4.799a2.5 2.5 0 0 1 0 3.904l-5.998 4.799c-1.637 1.31-4.062.144-4.062-1.953Z" fill="none" stroke="currentColor" stroke-width="1.5"/></g></symbol><symbol id="workshops" viewBox="0 0 24 24"><g fill="none"><path d="M21 3H7a2 2 0 0 0-2 2v10a2 2 0 0 0 2 2h14a2 2 0 0 0 2-2V5a2 2 0 0 0-2-2Z" stroke="currentColor" stroke-width="2" stroke-miterlimit="10" stroke-linecap="round" stroke-linejoin="round"/><path d="M1 7v12a2 2 0 0 0 2 2h16M12 7l5 3-5 3V7Z" stroke="currentColor" stroke-width="2" stroke-miterlimit="10" stroke-linecap="round" stroke-linejoin="round"/></g></symbol><symbol id="x" viewBox="0 0 396 396"><g fill="none"><path d="M301.026 37.125h54.582l-119.246 136.29 140.283 185.46h-109.84l-86.031-112.48-98.439 112.48H27.72l127.545-145.777L20.691 37.125H133.32l77.764 102.812 89.942-102.812Zm-19.157 289.08h30.245L116.886 68.079H84.43L281.87 326.205Z" fill="currentColor"/></g></symbol></svg>