<?xml version="1.0" standalone="no"?>
<!DOCTYPE svg PUBLIC "-//W3C//DTD SVG 20010904//EN"
 "http://www.w3.org/TR/2001/REC-SVG-20010904/DTD/svg10.dtd">
<svg version="1.0" xmlns="http://www.w3.org/2000/svg"
 width="1024.000000pt" height="1024.000000pt" viewBox="0 0 1024.000000 1024.000000"
 preserveAspectRatio="xMidYMid meet">
<metadata>
Created by potrace 1.11, written by Peter Selinger 2001-2013
</metadata>
<g transform="translate(0.000000,1024.000000) scale(0.100000,-0.100000)"
fill="#000000" stroke="none">
<path d="M0 5120 l0 -5120 5120 0 5120 0 0 5120 0 5120 -5120 0 -5120 0 0
-5120z m2650 711 c0 -1671 3 -2454 11 -2506 31 -223 124 -359 286 -417 71 -26
260 -36 344 -19 117 24 217 91 274 182 40 62 73 176 84 288 8 69 11 882 11
2502 l0 2399 460 0 460 0 -3 -2502 c-2 -2338 -4 -2509 -20 -2598 -70 -379
-189 -624 -399 -826 -240 -230 -541 -339 -969 -351 -257 -8 -423 13 -629 79
-196 62 -351 156 -490 298 -205 208 -320 468 -381 865 -10 62 -14 646 -16
2558 l-3 2477 490 0 490 0 0 -2429z m3820 1295 c200 -624 367 -1133 370 -1130
3 3 172 512 376 1132 l372 1127 451 3 c272 1 451 -1 451 -7 0 -5 -228 -683
-506 -1506 l-506 -1496 502 -1472 c277 -810 522 -1527 545 -1594 l43 -123
-517 0 -516 0 -394 1215 c-217 668 -397 1215 -400 1215 -4 0 -186 -547 -405
-1215 l-400 -1215 -457 0 -458 0 113 333 c63 182 308 900 545 1594 l431 1261
-441 1304 c-242 717 -472 1394 -509 1506 l-69 202 507 0 507 0 365 -1134z"/>
</g>
</svg>
